<svg width="1024" height="1024" viewBox="0 0 1024 1024" fill="none" xmlns="http://www.w3.org/2000/svg">
  <rect width="1024" height="1024" rx="80" fill="#D9D9D9"/>
  <path d="M380 300C380 282.327 394.327 268 412 268H464C481.673 268 496 282.327 496 300V518L404.948 659.205C389.548 683.077 352 672.174 352 643.769V300C352 282.327 366.327 268 384 268H380Z" fill="#000000"/>
  <path d="M500 512L604.703 382.681C610.777 375.181 619.911 370.819 629.562 370.819H612C629.673 370.819 644 385.146 644 402.819V573C644 590.673 629.673 605 612 605H500V512Z" fill="#000000"/>
  <path d="M500 512L628.812 610.751C636.745 616.833 641.417 626.256 641.417 636.252V666C641.417 683.673 627.09 698 609.417 698H529C511.327 698 497 683.673 497 666V512H500Z" fill="#000000"/>
</svg>
